<svg width="150" height="32" viewBox="0 0 160 32" fill="none" xmlns="http://www.w3.org/2000/svg">
  <defs>
    <linearGradient id="starGradientLight" x1="2" y1="2" x2="32" y2="30" gradientUnits="userSpaceOnUse">
      <stop stop-color="#7C3AED" />
      <stop offset="1" stop-color="#C084FC" />
    </linearGradient>
  </defs>
  <path d="M16 2C16 9.73 22.27 16 30 16C22.27 16 16 22.27 16 30C16 22.27 9.73 16 2 16C9.73 16 16 9.73 16 2Z" fill="url(#starGradientLight)"/>
  <path d="M28 4C28 6.21 29.79 8 32 8C29.79 8 28 9.79 28 12C28 9.79 26.21 8 24 8C26.21 8 28 6.21 28 4Z" fill="#C084FC"/>
  <text x="42" y="23" font-family="'Pretendard', sans-serif" font-size="22" font-weight="800" fill="#111827" letter-spacing="-0.05em">별빛<tspan font-weight="400">체크인</tspan></text>
</svg>
